<svg width="20" height="20" viewBox="0 0 24 24" fill="none" stroke="currentColor" stroke-width="1.7" stroke-linecap="round" stroke-linejoin="round" data-om-id="jsx:/https:/c0e811de-2c8e-4132-a3d5-52ec1079f5f7.claudeusercontent.com/v1/design/projects/c0e811de-2c8e-4132-a3d5-52ec1079f5f7/serve/ui.jsx:361:9:5" style="flex: 0 0 auto; display: block;"><path d="M4 7h10M4 7a2 2 0 1 0 0-.1M14 7a2 2 0 1 0 4 0 2 2 0 0 0-4 0M10 17h10M20 17a2 2 0 1 0-4 0 2 2 0 0 0 4 0M6 17a2 2 0 1 0 4 0 2 2 0 0 0-4 0M16 7v3a2 2 0 0 1-2 2H8" data-om-id="jsx:/https:/c0e811de-2c8e-4132-a3d5-52ec1079f5f7.claudeusercontent.com/v1/design/projects/c0e811de-2c8e-4132-a3d5-52ec1079f5f7/serve/ui.jsx:3260:37:27"></path></svg>