<svg width="200" height="56" viewBox="0 0 200 56" fill="none" xmlns="http://www.w3.org/2000/svg">
<rect width="200" height="56" rx="12" fill="white"></rect>
<rect x="45" y="16" width="24" height="24" rx="12" fill="#FC3F1D"></rect>
<path d="M57.3255 29.2396C58.0267 30.7756 58.2605 31.3099 58.2605 33.1548V35.6007H55.7561V31.4769L51.0312 21.2007H53.6441L57.3255 29.2396ZM60.4142 21.2007L57.3506 28.1628H59.8966L62.9686 21.2007H60.4142Z" fill="white"></path>
<path d="M86.936 28.12V33H84.984V28.136L81.16 21.528H83.336L86.072 26.456L88.856 21.528H90.728L86.936 28.12Z" fill="black"></path>
<path d="M95.8396 31.544C95.7543 31.736 95.637 31.928 95.4876 32.12C95.349 32.312 95.173 32.488 94.9596 32.648C94.757 32.7973 94.5116 32.92 94.2236 33.016C93.9356 33.112 93.5996 33.16 93.2156 33.16C92.853 33.16 92.517 33.1066 92.2076 33C91.8983 32.904 91.6263 32.7546 91.3916 32.552C91.1676 32.3493 90.9863 32.0986 90.8476 31.8C90.7196 31.4906 90.6556 31.1386 90.6556 30.744C90.6556 29.8373 90.9916 29.16 91.6636 28.712C92.3356 28.2533 93.285 28.024 94.5116 28.024H95.7756V27.512C95.7756 26.968 95.637 26.5946 95.3596 26.392C95.0823 26.1786 94.6236 26.072 93.9836 26.072C93.4396 26.072 92.9276 26.152 92.4476 26.312C91.9783 26.4613 91.5623 26.6373 91.1996 26.84V25.288C91.5303 25.1066 91.9676 24.936 92.5116 24.776C93.0556 24.616 93.6476 24.536 94.2876 24.536C95.3543 24.536 96.1756 24.76 96.7516 25.208C97.3383 25.6453 97.6316 26.3493 97.6316 27.32V31.656C97.6316 31.752 97.6316 31.864 97.6316 31.992C97.6423 32.1093 97.6476 32.232 97.6476 32.36C97.6583 32.488 97.669 32.6106 97.6796 32.728C97.6903 32.8346 97.701 32.9253 97.7116 33H95.9996C95.9676 32.8506 95.9356 32.6426 95.9036 32.376C95.8823 32.1093 95.8663 31.8693 95.8556 31.656L95.8396 31.544ZM93.7276 31.72C94.1223 31.72 94.4476 31.64 94.7036 31.48C94.9703 31.3093 95.1836 31.1173 95.3436 30.904C95.5036 30.68 95.6156 30.4613 95.6796 30.248C95.7436 30.0346 95.7756 29.8853 95.7756 29.8V29.24H94.6236C93.8876 29.24 93.349 29.3573 93.0076 29.592C92.6663 29.816 92.4956 30.136 92.4956 30.552C92.4956 30.9146 92.597 31.2026 92.7996 31.416C93.013 31.6186 93.3223 31.72 93.7276 31.72Z" fill="black"></path>
<path d="M103.698 26.072C103.154 26.072 102.706 26.1893 102.354 26.424C102.002 26.648 101.714 26.9413 101.49 27.304V33H99.6338V24.696H101.394L101.458 26.056H101.49C101.714 25.6186 102.05 25.256 102.498 24.968C102.956 24.68 103.538 24.536 104.242 24.536C105.052 24.536 105.714 24.7546 106.226 25.192C106.748 25.6293 107.01 26.296 107.01 27.192V33H105.138V27.384C105.138 26.904 105.01 26.568 104.754 26.376C104.498 26.1733 104.146 26.072 103.698 26.072Z" fill="black"></path>
<path d="M114.945 31.448C114.678 31.9706 114.321 32.3866 113.873 32.696C113.425 33.0053 112.865 33.16 112.193 33.16C111.702 33.16 111.233 33.0746 110.785 32.904C110.337 32.7226 109.942 32.456 109.601 32.104C109.26 31.7413 108.988 31.2933 108.785 30.76C108.582 30.216 108.481 29.576 108.481 28.84C108.481 28.1146 108.582 27.4853 108.785 26.952C108.988 26.408 109.26 25.96 109.601 25.608C109.953 25.2453 110.353 24.9786 110.801 24.808C111.249 24.6266 111.718 24.536 112.209 24.536C112.828 24.536 113.356 24.6586 113.793 24.904C114.241 25.1493 114.604 25.496 114.881 25.944V21.528H116.721V33H115.041L114.945 31.448ZM112.625 31.608C112.945 31.608 113.238 31.5546 113.505 31.448C113.782 31.3306 114.022 31.16 114.225 30.936C114.438 30.7013 114.604 30.4133 114.721 30.072C114.838 29.72 114.897 29.3093 114.897 28.84C114.897 28.3706 114.838 27.9653 114.721 27.624C114.604 27.272 114.444 26.984 114.241 26.76C114.038 26.5253 113.798 26.3546 113.521 26.248C113.244 26.1306 112.945 26.072 112.625 26.072C111.974 26.072 111.436 26.3066 111.009 26.776C110.593 27.2453 110.385 27.9333 110.385 28.84C110.385 29.768 110.593 30.4613 111.009 30.92C111.425 31.3786 111.964 31.608 112.625 31.608Z" fill="black"></path>
<path d="M125.765 32.392C125.648 32.4666 125.504 32.552 125.333 32.648C125.163 32.7333 124.96 32.8133 124.725 32.888C124.491 32.9626 124.219 33.0266 123.909 33.08C123.6 33.1333 123.248 33.16 122.853 33.16C121.328 33.16 120.187 32.7813 119.429 32.024C118.683 31.2666 118.309 30.2053 118.309 28.84C118.309 28.168 118.411 27.5653 118.613 27.032C118.816 26.4986 119.099 26.0506 119.461 25.688C119.824 25.3146 120.256 25.032 120.757 24.84C121.259 24.6373 121.808 24.536 122.405 24.536C123.024 24.536 123.579 24.6373 124.069 24.84C124.571 25.0426 124.981 25.3466 125.301 25.752C125.621 26.1573 125.84 26.6586 125.957 27.256C126.085 27.8533 126.091 28.552 125.973 29.352H120.229C120.304 30.1093 120.555 30.68 120.981 31.064C121.408 31.4373 122.075 31.624 122.981 31.624C123.643 31.624 124.192 31.544 124.629 31.384C125.077 31.2133 125.456 31.0373 125.765 30.856V32.392ZM122.405 26.008C121.861 26.008 121.403 26.1733 121.029 26.504C120.656 26.8346 120.411 27.3253 120.293 27.976H124.197C124.219 27.304 124.069 26.808 123.749 26.488C123.429 26.168 122.981 26.008 122.405 26.008Z" fill="black"></path>
<path d="M130.422 29.944L128.406 33H126.582L129.51 28.68L126.87 24.696H128.982L130.806 27.432L132.582 24.696H134.406L131.718 28.712L134.566 33H132.454L130.422 29.944Z" fill="black"></path>
<path d="M141.402 21.528V33H139.466V21.528H141.402Z" fill="black"></path>
<path d="M143.857 21.528H147.729C148.54 21.528 149.292 21.6186 149.985 21.8C150.689 21.9813 151.297 22.28 151.809 22.696C152.332 23.112 152.737 23.6613 153.025 24.344C153.324 25.0266 153.473 25.8693 153.473 26.872C153.473 27.8853 153.324 28.776 153.025 29.544C152.737 30.3013 152.326 30.936 151.793 31.448C151.27 31.96 150.646 32.3493 149.921 32.616C149.206 32.872 148.422 33 147.569 33H143.857V21.528ZM145.793 23.208V31.336H147.633C148.198 31.336 148.71 31.2506 149.169 31.08C149.638 30.9093 150.038 30.648 150.369 30.296C150.71 29.944 150.972 29.496 151.153 28.952C151.345 28.3973 151.441 27.7413 151.441 26.984C151.441 26.2373 151.35 25.624 151.169 25.144C150.988 24.6533 150.732 24.264 150.401 23.976C150.081 23.688 149.697 23.4906 149.249 23.384C148.801 23.2666 148.316 23.208 147.793 23.208H145.793Z" fill="black"></path>
</svg>